<svg width="15" height="27" viewBox="0 0 15 27" fill="none" xmlns="http://www.w3.org/2000/svg">
<path d="M12.8714 26.9965C13.3679 26.9974 13.849 26.8408 14.2313 26.5539C14.4465 26.3924 14.6243 26.194 14.7547 25.9701C14.8851 25.7462 14.9654 25.5012 14.991 25.2492C15.0167 24.9972 14.9872 24.743 14.9042 24.5013C14.8213 24.2596 14.6865 24.0351 14.5075 23.8407L4.98811 13.5264L14.1676 3.19288C14.3441 2.99605 14.4759 2.76956 14.5554 2.52645C14.6349 2.28333 14.6606 2.02838 14.631 1.77624C14.6014 1.5241 14.5171 1.27975 14.3828 1.05723C14.2486 0.834709 14.0671 0.638407 13.8488 0.479608C13.629 0.304427 13.3715 0.172289 13.0926 0.0914897C12.8137 0.01069 12.5193 -0.0170271 12.228 0.0100765C11.9367 0.0371801 11.6548 0.11852 11.3998 0.248991C11.1449 0.379463 10.9224 0.556248 10.7465 0.768254L0.483381 12.3141C0.170852 12.6584 0 13.0903 0 13.536C0 13.9817 0.170852 14.4136 0.483381 14.7579L11.1077 26.3038C11.3209 26.5366 11.5917 26.7207 11.8981 26.8411C12.2045 26.9615 12.538 27.0147 12.8714 26.9965Z" fill="#FFFDFD"/>
</svg>
