<svg width="42" height="38" viewBox="0 0 42 38" fill="none" xmlns="http://www.w3.org/2000/svg">
<path d="M39.8613 8.24096C39.7222 8.03834 39.5384 7.87416 39.3255 7.76251C39.1126 7.65087 38.8771 7.5951 38.6391 7.6H8.65362L7.25691 3.43374C7.10133 2.91747 6.79347 2.46637 6.37771 2.14547C5.96196 1.82456 5.4598 1.65044 4.94362 1.64819H1.27727C0.999443 1.64819 0.733 1.76396 0.53655 1.97002C0.340101 2.17609 0.229736 2.45557 0.229736 2.74699C0.229736 3.03841 0.340101 3.31789 0.53655 3.52395C0.733 3.73002 0.999443 3.84578 1.27727 3.84578H4.94362C5.02364 3.83956 5.10311 3.86395 5.16731 3.91446C5.23151 3.96496 5.27609 4.03815 5.29279 4.12048L12.931 26.6C13.0866 27.1163 13.3945 27.5674 13.8102 27.8883C14.226 28.2092 14.7281 28.3833 15.2443 28.3855H33.8816C34.1594 28.3855 34.4259 28.2698 34.6223 28.0637C34.8188 27.8576 34.9291 27.5782 34.9291 27.2867C34.9291 26.9953 34.8188 26.7158 34.6223 26.5098C34.4259 26.3037 34.1594 26.1879 33.8816 26.1879H15.2443C15.1643 26.1942 15.0848 26.1698 15.0206 26.1193C14.9564 26.0688 14.9119 25.9956 14.8951 25.9132L13.3675 21.4265H35.0601C35.3708 21.4362 35.676 21.3384 35.9284 21.148C36.1808 20.9577 36.3665 20.6855 36.4568 20.3735L40.0359 9.47711C40.1024 9.27132 40.1212 9.05187 40.0909 8.83692C40.0605 8.62197 39.9818 8.41769 39.8613 8.24096ZM34.7982 19.5952H12.7128L9.30832 9.56867H38.1154L34.7982 19.5952Z" fill="#141111"/>
<path d="M17.2958 29.0723C16.657 29.0723 16.0325 29.271 15.5014 29.6433C14.9702 30.0155 14.5562 30.5447 14.3118 31.1637C14.0673 31.7828 14.0034 32.464 14.128 33.1212C14.2526 33.7784 14.5602 34.3821 15.0119 34.8559C15.4636 35.3297 16.0391 35.6524 16.6657 35.7831C17.2922 35.9138 17.9416 35.8467 18.5318 35.5903C19.122 35.3339 19.6264 34.8996 19.9814 34.3425C20.3363 33.7854 20.5257 33.1303 20.5257 32.4603C20.5266 32.0151 20.4438 31.5741 20.2818 31.1625C20.1198 30.751 19.8819 30.3772 19.5818 30.0624C19.2817 29.7476 18.9253 29.498 18.533 29.3281C18.1407 29.1582 17.7202 29.0713 17.2958 29.0723ZM17.2958 33.6506C17.0627 33.6506 16.8349 33.5781 16.6411 33.4423C16.4473 33.3065 16.2962 33.1134 16.207 32.8875C16.1178 32.6616 16.0945 32.4131 16.14 32.1733C16.1854 31.9335 16.2977 31.7133 16.4625 31.5404C16.6273 31.3675 16.8373 31.2498 17.0659 31.2021C17.2945 31.1544 17.5314 31.1789 17.7468 31.2724C17.9621 31.366 18.1462 31.5244 18.2757 31.7277C18.4052 31.931 18.4743 32.17 18.4743 32.4145C18.4749 32.577 18.4449 32.738 18.3859 32.8883C18.3269 33.0386 18.2401 33.1752 18.1306 33.2901C18.021 33.405 17.8908 33.496 17.7476 33.5579C17.6043 33.6198 17.4507 33.6513 17.2958 33.6506Z" fill="#141111"/>
<path d="M31.132 29.0723C30.4932 29.0723 29.8687 29.271 29.3376 29.6433C28.8064 30.0155 28.3924 30.5447 28.148 31.1637C27.9035 31.7828 27.8395 32.464 27.9642 33.1212C28.0888 33.7784 28.3964 34.3821 28.8481 34.8559C29.2998 35.3297 29.8753 35.6524 30.5019 35.7831C31.1284 35.9138 31.7778 35.8467 32.368 35.5903C32.9582 35.3339 33.4626 34.8996 33.8175 34.3425C34.1724 33.7854 34.3619 33.1303 34.3619 32.4603C34.3628 32.0151 34.2799 31.5741 34.118 31.1625C33.956 30.751 33.7181 30.3772 33.418 30.0624C33.1179 29.7476 32.7614 29.498 32.3691 29.3281C31.9768 29.1582 31.5564 29.0713 31.132 29.0723ZM31.132 33.6506C30.8989 33.6506 30.6711 33.5781 30.4773 33.4423C30.2835 33.3065 30.1324 33.1134 30.0432 32.8875C29.954 32.6616 29.9307 32.4131 29.9762 32.1733C30.0216 31.9335 30.1339 31.7133 30.2987 31.5404C30.4635 31.3675 30.6735 31.2498 30.9021 31.2021C31.1307 31.1544 31.3676 31.1789 31.583 31.2724C31.7983 31.366 31.9824 31.5244 32.1118 31.7277C32.2413 31.931 32.3105 32.17 32.3105 32.4145C32.3111 32.577 32.2811 32.738 32.2221 32.8883C32.1631 33.0386 32.0763 33.1752 31.9667 33.2901C31.8572 33.405 31.727 33.496 31.5837 33.5579C31.4405 33.6198 31.2869 33.6513 31.132 33.6506Z" fill="#141111"/>
</svg>
