<svg width="19" height="17" viewBox="0 0 19 17" fill="none" xmlns="http://www.w3.org/2000/svg">
<path d="M17.7058 8.29079L15.9958 6.58079V1.51079C15.9958 1.37818 15.9431 1.25101 15.8494 1.15724C15.7556 1.06347 15.6284 1.01079 15.4958 1.01079H13.4958C13.3632 1.01079 13.236 1.06347 13.1423 1.15724C13.0485 1.25101 12.9958 1.37818 12.9958 1.51079V3.59079L9.70581 0.290793C9.51845 0.104542 9.26499 0 9.00081 0C8.73662 0 8.48317 0.104542 8.29581 0.290793L0.295808 8.29079C0.155386 8.43006 0.0594149 8.60785 0.0200298 8.80166C-0.0193554 8.99547 -0.000385948 9.19661 0.0745396 9.37964C0.149465 9.56268 0.276982 9.71938 0.440966 9.82995C0.604949 9.94051 0.798035 9.99996 0.995808 10.0008H1.99581V16.0008C1.99581 16.266 2.10116 16.5204 2.2887 16.7079C2.47624 16.8954 2.73059 17.0008 2.99581 17.0008H6.49581C6.62842 17.0008 6.75559 16.9481 6.84936 16.8543C6.94313 16.7606 6.99581 16.6334 6.99581 16.5008V11.5008C6.99581 11.3682 7.04849 11.241 7.14225 11.1472C7.23602 11.0535 7.3632 11.0008 7.49581 11.0008H10.4958C10.6284 11.0008 10.7556 11.0535 10.8494 11.1472C10.9431 11.241 10.9958 11.3682 10.9958 11.5008V16.5008C10.9958 16.6334 11.0485 16.7606 11.1423 16.8543C11.236 16.9481 11.3632 17.0008 11.4958 17.0008H14.9958C15.261 17.0008 15.5154 16.8954 15.7029 16.7079C15.8905 16.5204 15.9958 16.266 15.9958 16.0008V10.0008H16.9958C17.1944 10.0019 17.3889 9.94393 17.5544 9.83412C17.7199 9.72432 17.849 9.56772 17.9252 9.38427C18.0013 9.20083 18.0212 8.99886 17.9821 8.80411C17.943 8.60936 17.8468 8.43066 17.7058 8.29079Z" fill="#141111"/>
</svg>
