<svg width="131" height="27" viewBox="0 0 131 27" fill="none" xmlns="http://www.w3.org/2000/svg">
<g clip-path="url(#clip0_102_559)">
<path d="M14.4717 12.9363H4.0521C3.61795 12.9363 3.28027 12.5671 3.28027 12.0923C3.28027 11.6177 3.61795 11.2484 4.0521 11.2484H14.4717C14.9059 11.2484 15.2435 11.6177 15.2435 12.0923C15.2435 12.5671 14.9059 12.9363 14.4717 12.9363Z" fill="#141111"/>
<path d="M12.0598 17.3143H5.01694C4.58279 17.3143 4.24512 16.9451 4.24512 16.4704C4.24512 15.9957 4.58279 15.6265 5.01694 15.6265H12.0598C12.494 15.6265 12.8316 15.9957 12.8316 16.4704C12.8316 16.9451 12.494 17.3143 12.0598 17.3143Z" fill="#141111"/>
<path d="M11.1915 21.5341H0.771826C0.337673 21.5341 0 21.1649 0 20.6902C0 20.2155 0.337673 19.8462 0.771826 19.8462H11.1915C11.6256 19.8462 11.9633 20.2155 11.9633 20.6902C11.9633 21.1649 11.6256 21.5341 11.1915 21.5341Z" fill="#141111"/>
<path d="M17.2444 21.8907C15.4197 21.8907 13.866 21.4792 12.5833 20.6564C11.3186 19.8152 10.4334 18.6541 9.92749 17.173L12.6104 15.5821C13.3691 17.7398 14.9409 18.8187 17.3257 18.8187C18.4819 18.8187 19.3582 18.5901 19.9544 18.133C20.5505 17.6758 20.8486 17.0633 20.8486 16.2953C20.8486 15.5273 20.5325 14.933 19.9002 14.5124C19.2678 14.0918 18.1477 13.6347 16.5398 13.141C14.8958 12.6473 13.5679 12.0621 12.5562 11.3855C11.3276 10.5078 10.7134 9.21868 10.7134 7.51811C10.7134 5.81754 11.3096 4.47354 12.502 3.48611C13.6763 2.4804 15.1126 1.97754 16.8108 1.97754C18.3103 1.97754 19.6292 2.3524 20.7673 3.10211C21.9236 3.83354 22.8088 4.86668 23.4231 6.20154L20.7944 7.73754C19.9995 5.94554 18.6716 5.04954 16.8108 5.04954C15.9075 5.04954 15.1848 5.26897 14.6428 5.70782C14.1008 6.1284 13.8298 6.70439 13.8298 7.43582C13.8298 8.14897 14.1008 8.71582 14.6428 9.1364C15.1848 9.53868 16.1875 9.9684 17.6509 10.4255C18.5542 10.7364 19.0781 10.9193 19.2227 10.9741C19.4575 11.0473 19.9273 11.2301 20.6318 11.5227C21.21 11.7604 21.6707 12.0164 22.0139 12.2907C23.4231 13.4061 24.0735 14.7227 23.9651 16.2404C23.9651 17.9775 23.3418 19.3581 22.0952 20.3821C20.8848 21.3878 19.2678 21.8907 17.2444 21.8907ZM34.156 7.46325C35.9988 7.46325 37.5887 8.16725 38.9256 9.57525C40.2444 10.965 40.9038 12.6655 40.9038 14.677C40.9038 16.7067 40.2444 18.4164 38.9256 19.8061C37.6067 21.1958 36.0169 21.8907 34.156 21.8907C32.1145 21.8907 30.5337 21.1227 29.4136 19.5867V27.0198H26.4868V7.81982H29.4136V9.79468C30.5156 8.2404 32.0965 7.46325 34.156 7.46325ZM30.6331 17.8312C31.4461 18.6541 32.4668 19.0655 33.6953 19.0655C34.9239 19.0655 35.9446 18.6541 36.7576 17.8312C37.5706 16.9901 37.9771 15.9387 37.9771 14.677C37.9771 13.4153 37.5706 12.373 36.7576 11.5501C35.9446 10.709 34.9239 10.2884 33.6953 10.2884C32.4668 10.2884 31.4461 10.709 30.6331 11.5501C29.8201 12.373 29.4136 13.4153 29.4136 14.677C29.4136 15.9204 29.8201 16.9718 30.6331 17.8312ZM56.6456 15.9387H45.8599C46.0767 16.9627 46.5645 17.7581 47.3233 18.325C48.1001 18.8918 49.0577 19.1753 50.1958 19.1753C51.7315 19.1753 52.8968 18.6084 53.6917 17.4747L56.1036 18.901C54.7847 20.8941 52.8064 21.8907 50.1688 21.8907C47.9827 21.8907 46.2032 21.2141 44.8301 19.861C43.4751 18.4895 42.7977 16.7615 42.7977 14.677C42.7977 12.6473 43.4661 10.9375 44.803 9.54782C46.1219 8.15811 47.8382 7.46325 49.952 7.46325C51.9212 7.46325 53.5472 8.16725 54.8299 9.57525C56.1126 10.9833 56.754 12.693 56.754 14.7044C56.754 15.0701 56.7178 15.4815 56.6456 15.9387ZM45.8328 13.525H53.8001C53.6014 12.4461 53.1497 11.6141 52.4451 11.029C51.7586 10.4438 50.9185 10.1513 49.9249 10.1513C48.8409 10.1513 47.9375 10.453 47.2149 11.0564C46.4922 11.6598 46.0315 12.4827 45.8328 13.525ZM72.3391 15.9387H61.5534C61.7702 16.9627 62.258 17.7581 63.0168 18.325C63.7937 18.8918 64.7512 19.1753 65.8894 19.1753C67.425 19.1753 68.5903 18.6084 69.3852 17.4747L71.7971 18.901C70.4782 20.8941 68.5 21.8907 65.8623 21.8907C63.6762 21.8907 61.8967 21.2141 60.5236 19.861C59.1687 18.4895 58.4912 16.7615 58.4912 14.677C58.4912 12.6473 59.1596 10.9375 60.4965 9.54782C61.8154 8.15811 63.5317 7.46325 65.6455 7.46325C67.6147 7.46325 69.2407 8.16725 70.5234 9.57525C71.8061 10.9833 72.4475 12.693 72.4475 14.7044C72.4475 15.0701 72.4113 15.4815 72.3391 15.9387ZM61.5263 13.525H69.4936C69.2949 12.4461 68.8432 11.6141 68.1386 11.029C67.4521 10.4438 66.612 10.1513 65.6184 10.1513C64.5344 10.1513 63.6311 10.453 62.9084 11.0564C62.1857 11.6598 61.725 12.4827 61.5263 13.525ZM85.6749 9.76725V2.33411H88.6017V21.5341H85.6749V19.5593C84.5729 21.1135 82.992 21.8907 80.9325 21.8907C79.0716 21.8907 77.4818 21.1958 76.1629 19.8061C74.8441 18.4164 74.1847 16.7067 74.1847 14.677C74.1847 12.6473 74.8441 10.9375 76.1629 9.54782C77.4818 8.15811 79.0716 7.46325 80.9325 7.46325C82.992 7.46325 84.5729 8.23125 85.6749 9.76725ZM78.3309 17.8312C79.1439 18.6541 80.1647 19.0655 81.3932 19.0655C82.6217 19.0655 83.6424 18.6541 84.4554 17.8312C85.2684 16.9901 85.6749 15.9387 85.6749 14.677C85.6749 13.4153 85.2684 12.373 84.4554 11.5501C83.6424 10.709 82.6217 10.2884 81.3932 10.2884C80.1647 10.2884 79.1439 10.709 78.3309 11.5501C77.5179 12.373 77.1114 13.4153 77.1114 14.677C77.1114 15.9204 77.5179 16.9718 78.3309 17.8312ZM97.6767 17.7764L101.145 7.81982H104.262L99.0587 21.973C97.758 25.5204 95.5539 27.2027 92.4464 27.0198V24.2495C93.3498 24.3044 94.0814 24.1124 94.6415 23.6735C95.2016 23.2347 95.6713 22.5307 96.0507 21.5615L96.1862 21.2873L90.4411 7.81982H93.6388L97.6767 17.7764Z" fill="#141111"/>
<path d="M129.652 17.8673C129.601 17.8673 129.549 17.8673 129.497 17.8673L129.29 17.8411L129.238 18.051C129.135 18.5233 128.746 18.8643 128.281 18.943L128.099 18.9693V19.1792C128.099 19.8613 127.556 20.3861 126.909 20.3861C126.546 20.3861 126.21 20.2286 125.977 19.94L125.822 19.7301L125.615 19.94C125.33 20.2286 124.942 20.3861 124.528 20.3074L124.321 20.2811L124.295 20.4648C124.139 20.9633 123.674 21.3044 123.156 21.3044C122.172 21.3044 122.043 20.8321 121.991 20.7009L121.836 20.1499L121.577 20.6747C121.422 20.9895 121.137 21.0945 120.516 21.0945C120.387 21.0945 120.257 21.0682 120.128 21.0157L119.972 20.9633L119.869 21.0945C119.636 21.4093 119.274 21.593 118.885 21.593C118.316 21.593 117.85 21.1994 117.721 20.6484L117.617 20.1499L117.307 20.5697C117.074 20.8846 116.711 21.0682 116.323 21.0682C115.831 21.0682 115.391 20.7534 115.21 20.2811L115.029 19.8351L114.796 20.2549C114.563 20.6484 114.046 21.0682 113.631 21.0682C112.959 21.0682 112.441 20.5172 112.441 19.8613C112.441 19.8351 112.441 19.8351 112.441 19.8089L112.467 19.3366L112.079 19.599C111.872 19.7564 111.639 19.8089 111.38 19.8089C110.759 19.8089 110.344 19.1005 110.319 18.4708L110.293 18.051L109.956 18.2871C109.749 18.4445 109.516 18.497 109.257 18.497C108.585 18.497 108.067 17.946 108.067 17.2901C108.067 17.0015 108.17 16.7129 108.352 16.503C108.403 16.4505 108.455 16.4243 108.507 16.3718C109.102 17.0802 110.008 17.7099 111.224 18.2609C111.923 18.5757 112.726 18.8381 113.554 19.0742C113.606 19.2579 113.631 19.4415 113.683 19.6252C113.709 19.7301 113.787 19.8089 113.89 19.8089C113.89 19.8089 113.89 19.8089 113.916 19.8089C114.02 19.8089 114.097 19.7564 114.123 19.6514C114.123 19.6514 114.175 19.494 114.304 19.2579C115.883 19.599 117.617 19.7826 119.429 19.7826C122.535 19.7826 125.434 19.2316 127.633 18.2609C129.057 17.6312 130.066 16.8441 130.636 16.0045C130.739 16.1882 130.817 16.3981 130.817 16.6342C130.843 17.3426 130.299 17.8673 129.652 17.8673Z" fill="#FCDC38"/>
<path d="M130.61 14.6926C130.61 14.6402 130.61 14.6139 130.61 14.5615C130.61 14.2204 130.584 13.9055 130.532 13.5907C129.497 15.401 125.796 16.398 119.455 16.503C117.229 16.5555 115.883 17.4213 115.159 18.1297C114.9 18.3658 114.719 18.6282 114.563 18.8381C116.064 19.1529 117.721 19.3366 119.429 19.3366C122.457 19.3366 125.304 18.8118 127.452 17.8673C129.057 17.1589 130.092 16.2669 130.48 15.3223C130.584 15.1124 130.61 14.9025 130.61 14.6926ZM116.53 17.9198C116.53 18.0247 116.427 18.1034 116.297 18.1034C116.168 18.1034 116.064 18.0247 116.064 17.9198C116.064 17.8148 116.168 17.7361 116.297 17.7361C116.427 17.7099 116.53 17.8148 116.53 17.9198ZM118.342 17.9985C118.342 18.1034 118.238 18.1821 118.109 18.1821C117.98 18.1821 117.876 18.1034 117.876 17.9985C117.876 17.8935 117.98 17.8148 118.109 17.8148C118.238 17.7886 118.342 17.8935 118.342 17.9985ZM119.222 18.6544C119.351 18.6544 119.455 18.7331 119.455 18.8381C119.455 18.943 119.351 19.0217 119.222 19.0217C119.093 19.0217 118.989 18.943 118.989 18.8381C118.989 18.7331 119.093 18.6544 119.222 18.6544ZM119.765 17.395C119.765 17.5 119.662 17.5787 119.533 17.5787C119.403 17.5787 119.3 17.5 119.3 17.395C119.3 17.2901 119.403 17.2114 119.533 17.2114C119.662 17.2114 119.765 17.2901 119.765 17.395ZM121.215 18.3133C121.215 18.4183 121.111 18.497 120.982 18.497C120.852 18.497 120.749 18.4183 120.749 18.3133C120.749 18.2084 120.852 18.1297 120.982 18.1297C121.111 18.1034 121.215 18.2084 121.215 18.3133ZM122.276 17.054C122.276 17.1589 122.172 17.2376 122.043 17.2376C121.914 17.2376 121.81 17.1589 121.81 17.054C121.81 16.949 121.914 16.8703 122.043 16.8703C122.172 16.8703 122.276 16.949 122.276 17.054ZM124.321 18.3133C124.321 18.4183 124.217 18.497 124.088 18.497C123.958 18.497 123.855 18.4183 123.855 18.3133C123.855 18.2084 123.958 18.1297 124.088 18.1297C124.217 18.1034 124.321 18.2084 124.321 18.3133ZM125.227 17.4475C125.227 17.5525 125.123 17.6312 124.994 17.6312C124.864 17.6312 124.761 17.5525 124.761 17.4475C124.761 17.3426 124.864 17.2639 124.994 17.2639C125.123 17.2376 125.227 17.3426 125.227 17.4475ZM127.116 17.2901C127.116 17.395 127.012 17.4737 126.883 17.4737C126.754 17.4737 126.65 17.395 126.65 17.2901C126.65 17.1851 126.754 17.1064 126.883 17.1064C127.012 17.0802 127.116 17.1851 127.116 17.2901ZM127.582 16.2669C127.582 16.3718 127.478 16.4505 127.349 16.4505C127.219 16.4505 127.116 16.3718 127.116 16.2669C127.116 16.1619 127.219 16.0832 127.349 16.0832C127.478 16.0832 127.582 16.1619 127.582 16.2669ZM129.005 15.8733C129.005 15.9782 128.902 16.0832 128.772 16.0832C128.643 16.0832 128.539 16.0045 128.539 15.8733C128.539 15.7684 128.643 15.6896 128.772 15.6896C128.902 15.6896 129.005 15.7684 129.005 15.8733Z" fill="#141111"/>
<path d="M130.662 9.36654C130.662 9.31407 130.662 9.28783 130.662 9.23536C130.662 4.14542 125.641 0 119.455 0C113.269 0 108.248 4.14542 108.248 9.23536C108.248 9.28783 108.248 9.31407 108.248 9.36654C108.248 9.81257 108.377 10.2324 108.61 10.6521H108.585C109.102 11.413 110.06 12.1476 111.38 12.7511C113.528 13.6956 116.375 14.2466 119.429 14.2466C122.483 14.2466 125.33 13.7219 127.478 12.7511C128.565 12.2526 129.393 11.7016 129.963 11.0982C130.429 10.521 130.662 9.94376 130.662 9.36654ZM116.116 2.7811C116.09 3.46326 115.961 3.64692 115.754 3.85681C115.547 4.06671 115.184 4.09294 114.977 3.90929C114.77 3.69939 114.822 3.33208 115.029 3.12218C115.236 2.91229 115.417 2.7811 116.116 2.7811ZM117.333 5.56221C117.255 5.82457 116.944 6.06071 116.685 5.95576C116.427 5.87705 116.297 5.50973 116.375 5.24736C116.453 4.95876 116.556 4.7751 117.151 4.43402C117.462 5.06371 117.41 5.29984 117.333 5.56221ZM120.024 3.35831C120.024 3.64692 119.791 3.93552 119.507 3.93552C119.222 3.93552 118.989 3.64692 118.989 3.35831C118.989 3.06971 119.015 2.83358 119.507 2.33508C119.998 2.85981 120.024 3.06971 120.024 3.35831ZM122.302 6.11318C122.043 6.21813 121.732 6.00823 121.629 5.74586C121.525 5.45726 121.474 5.24736 121.732 4.61768C122.354 4.90629 122.457 5.08994 122.561 5.37855C122.664 5.64092 122.561 6.00823 122.302 6.11318ZM123.881 3.72563C123.699 3.93552 123.337 3.93552 123.104 3.75187C122.871 3.56821 122.742 3.38455 122.664 2.70239C123.337 2.64992 123.518 2.75487 123.751 2.96476C123.984 3.14842 124.062 3.51573 123.881 3.72563Z" fill="#141111"/>
<path d="M109.905 18.8643C110.06 19.6252 110.603 20.2811 111.38 20.2811C111.587 20.2811 111.794 20.2286 112.001 20.1499C112.156 20.937 112.829 21.5142 113.632 21.5142C114.123 21.5142 114.615 21.1731 114.952 20.8058C115.262 21.2519 115.754 21.5405 116.323 21.5405C116.712 21.5405 117.1 21.383 117.384 21.1469C117.669 21.6979 118.213 22.0652 118.86 22.0652C119.326 22.0652 119.791 21.8553 120.102 21.488C120.231 21.5142 120.361 21.5405 120.49 21.5405C120.93 21.5405 121.396 21.488 121.707 21.1994C121.966 21.5142 122.38 21.7766 123.156 21.7766C123.829 21.7766 124.398 21.383 124.657 20.7796C125.071 20.8058 125.46 20.6746 125.77 20.4123C126.081 20.7009 126.469 20.8583 126.883 20.8583C127.737 20.8583 128.462 20.2024 128.54 19.3366C129.031 19.1791 129.42 18.8118 129.601 18.3396H129.627C129.834 18.3396 130.015 18.2871 130.196 18.2346C130.196 18.3658 130.222 18.5232 130.222 18.6806C130.222 18.7331 130.222 18.7594 130.222 18.8118C130.248 21.4355 125.408 23.6132 119.455 23.6132C113.58 23.6132 108.792 21.488 108.688 18.8905C108.869 18.9693 109.076 18.9955 109.284 18.9955C109.491 18.9955 109.698 18.9693 109.905 18.8643Z" fill="#141111"/>
<path d="M108.3 14.5614C108.3 14.6139 108.3 14.6401 108.3 14.6926C108.3 14.9025 108.326 15.1124 108.403 15.3485C108.792 16.293 109.853 17.1589 111.431 17.8673C112.053 18.1296 112.7 18.3658 113.424 18.5757C112.648 16.1356 111.043 15.2173 109.827 14.5352C109.232 14.1941 108.688 13.8793 108.377 13.4595C108.326 13.8268 108.3 14.1941 108.3 14.5614ZM110.836 16.8703C110.836 16.7653 110.94 16.6866 111.069 16.6866C111.199 16.6866 111.302 16.7653 111.302 16.8703C111.302 16.9752 111.199 17.0539 111.069 17.0539C110.94 17.0539 110.836 16.9752 110.836 16.8703ZM110.448 15.7683C110.448 15.6634 110.552 15.5847 110.681 15.5847C110.81 15.5847 110.914 15.6634 110.914 15.7683C110.914 15.8733 110.81 15.952 110.681 15.952C110.552 15.952 110.448 15.8733 110.448 15.7683ZM109.076 15.2698C109.076 15.1649 109.18 15.0862 109.309 15.0862C109.439 15.0862 109.542 15.1649 109.542 15.2698C109.542 15.3748 109.439 15.4535 109.309 15.4535C109.18 15.4535 109.076 15.3748 109.076 15.2698Z" fill="#141111"/>
<path d="M113.942 18.7069C113.14 15.8996 111.38 14.8763 110.06 14.1417C109.025 13.5645 108.481 13.2234 108.533 12.4888C108.533 12.4625 108.533 12.4363 108.533 12.4101C108.533 12.3838 108.533 12.3838 108.533 12.3576C108.533 12.3314 108.533 12.3314 108.533 12.3051C108.533 12.0165 108.559 11.7017 108.585 11.4131C109.18 12.069 110.06 12.6724 111.199 13.1709C113.425 14.1417 116.349 14.6927 119.455 14.6927C122.561 14.6927 125.485 14.1417 127.685 13.1709C128.824 12.6724 129.704 12.069 130.299 11.3868C130.325 11.6754 130.351 11.9903 130.351 12.2789C130.351 12.3051 130.351 12.3051 130.351 12.3314C130.351 12.3576 130.351 12.4101 130.351 12.4363C130.351 14.6402 126.572 15.8996 119.429 16.0308C116.272 16.0832 114.745 17.7099 114.097 18.7331C114.072 18.7331 113.994 18.7331 113.942 18.7069Z" fill="#FCDC38"/>
</g>
<defs>
<clipPath id="clip0_102_559">
<rect width="131" height="27" fill="white"/>
</clipPath>
</defs>
</svg>
