<svg width="37" height="27" viewBox="0 0 37 27" fill="none" xmlns="http://www.w3.org/2000/svg">
<path d="M17.0201 21.5614C11.6921 21.5614 7.40015 17.3109 7.40015 12.0343C7.40015 6.75771 11.6921 2.50714 17.0201 2.50714C22.3481 2.50714 26.6401 6.75771 26.6401 12.0343C26.6401 17.3109 22.3481 21.5614 17.0201 21.5614ZM17.0201 3.97286C12.5061 3.97286 8.88015 7.56386 8.88015 12.0343C8.88015 16.5047 12.5061 20.0957 17.0201 20.0957C21.5341 20.0957 25.1601 16.5047 25.1601 12.0343C25.1601 7.56386 21.5341 3.97286 17.0201 3.97286Z" fill="#141111"/>
<path d="M24.1848 18.0929L30.83 24.6739L29.7836 25.7102L23.1384 19.1292L24.1848 18.0929Z" fill="#141111"/>
</svg>
