<svg width="19" height="18" viewBox="0 0 19 18" fill="none" xmlns="http://www.w3.org/2000/svg">
<path d="M9.5 0.939697C4.79453 0.939697 0.964844 4.66948 0.964844 9.2522C0.964844 13.8349 4.79453 17.5647 9.5 17.5647C14.2055 17.5647 18.0352 13.8349 18.0352 9.2522C18.0352 4.66948 14.2055 0.939697 9.5 0.939697ZM13.5004 12.3676C13.4262 12.4579 13.3186 12.5049 13.2109 12.5049C13.1293 12.5049 13.0477 12.4796 12.9809 12.4254L9.26992 9.5341C9.18086 9.46543 9.12891 9.36062 9.12891 9.2522V2.74676C9.12891 2.54799 9.2959 2.38535 9.5 2.38535C9.7041 2.38535 9.87109 2.54799 9.87109 2.74676V9.07872L13.441 11.8616C13.6043 11.9845 13.6303 12.2122 13.5004 12.3676Z" fill="#141111"/>
</svg>
